<svg width="83" height="82" viewBox="0 0 83 82" fill="none" xmlns="http://www.w3.org/2000/svg">
<rect x="2.92188" y="2.74893" width="78.0724" height="76.9831" rx="38.4915" fill="#4C9541" stroke="white" stroke-width="4"/>
<path d="M19.2969 41.3731L26.5149 38.2152V30.095L34.6351 34.6062L41.8531 31.4484L26.5149 22.4259L19.2969 26.0349V41.3731Z" fill="white"/>
<path d="M65.7684 26.0355L59.4527 22.8777L51.3325 27.3889L56.7459 30.0956L18.8516 47.6895V56.7119L24.7162 59.4187L33.2875 55.8097L27.874 52.6518L65.7684 35.5091V26.0355Z" fill="white"/>
<path d="M65.7671 55.8099V41.374L59.0003 44.0807V52.201L50.4289 48.1408L43.2109 52.201L59.0003 59.8701L65.7671 55.8099Z" fill="white"/>
<path d="M42.7526 60.321L38.6925 58.5165L31.0234 62.1255L42.7526 68.4412L54.4819 62.1255L47.715 58.5165L42.7526 60.321Z" fill="white"/>
<path d="M42.7526 14.3062L31.0234 20.1708L38.2414 24.6821L42.7526 22.4264L46.3616 24.6821L54.4819 21.0731L42.7526 14.3062Z" fill="white"/>
</svg>
