<svg width="83" height="82" viewBox="0 0 83 82" fill="none" xmlns="http://www.w3.org/2000/svg">
<rect x="2.05469" y="2.74893" width="78.0724" height="76.9831" rx="38.4915" fill="#4C9541" stroke="white" stroke-width="4"/>
<path d="M61.3019 21.2516C61.1307 20.7402 60.9263 20.6056 60.607 20.4778C59.9088 20.2154 58.7261 20.6124 58.7261 20.6124C58.7261 20.6124 16.8564 35.8734 14.4644 37.5624C13.9494 37.9257 13.7768 38.1411 13.6912 38.39C13.2777 39.5878 14.5659 40.1193 14.5659 40.1193L25.3578 43.6856C25.3578 43.6856 25.76 43.7462 25.9033 43.652C28.3584 42.0774 50.6037 27.8392 51.8866 27.3614C52.0891 27.3009 52.2391 27.3682 52.1992 27.5095C51.6855 29.3397 32.3645 46.7473 32.3645 46.7473C32.3645 46.7473 32.2908 46.8415 32.2443 46.9491L32.2191 46.9357L31.2123 57.7893C31.2123 57.7893 30.7902 61.1134 34.0695 57.7893C36.3832 55.441 38.6219 53.4761 39.7422 52.5274C43.453 55.1247 47.4465 57.9979 49.1701 59.4985C50.0356 60.2521 50.7597 60.3732 51.3557 60.353C52.9917 60.2925 53.4483 58.4689 53.4483 58.4689C53.4483 58.4689 61.0782 27.3345 61.3331 23.1626C61.3583 22.7522 61.3929 22.4965 61.3955 22.2138C61.4002 21.8236 61.3643 21.4333 61.3019 21.2516Z" fill="white"/>
</svg>
