<svg width="83" height="82" viewBox="0 0 83 82" fill="none" xmlns="http://www.w3.org/2000/svg">
<rect x="2.25781" y="2.74893" width="78.0724" height="76.9831" rx="38.4915" fill="#4C9541" stroke="white" stroke-width="4"/>
<mask id="path-2-inside-1_105_104" fill="white">
<path d="M50.6758 59.5756L39.8123 43.792L38.2653 41.5452L25.6595 23.23H31.0819L41.2764 38.0419L42.8233 40.2887L56.0983 59.5756H50.6758ZM58.3399 58.0339L44.6573 38.1557L43.1104 35.9075L33.3226 21.6879L32.5114 20.5095H20.4844L23.4176 24.7718L36.4314 43.6806L37.9784 45.9264L48.4348 61.1191L49.2461 62.2961H61.2732L58.3399 58.0339Z"/>
</mask>
<path d="M50.6758 59.5756L39.8123 43.792L38.2653 41.5452L25.6595 23.23H31.0819L41.2764 38.0419L42.8233 40.2887L56.0983 59.5756H50.6758ZM58.3399 58.0339L44.6573 38.1557L43.1104 35.9075L33.3226 21.6879L32.5114 20.5095H20.4844L23.4176 24.7718L36.4314 43.6806L37.9784 45.9264L48.4348 61.1191L49.2461 62.2961H61.2732L58.3399 58.0339Z" fill="white"/>
<path d="M50.6758 59.5756V63.5756H48.573L47.3808 61.8435L50.6758 59.5756ZM39.8123 43.792L43.1069 41.5235L43.1073 41.5241L39.8123 43.792ZM38.2653 41.5452L34.9707 43.8136L34.9703 43.813L38.2653 41.5452ZM25.6595 23.23L22.3645 25.4979L18.0505 19.23H25.6595V23.23ZM31.0819 23.23V19.23H33.1847L34.3769 20.9622L31.0819 23.23ZM41.2764 38.0419L37.9818 40.3103L37.9814 40.3097L41.2764 38.0419ZM42.8233 40.2887L46.118 38.0204L46.1183 38.0208L42.8233 40.2887ZM56.0983 59.5756L59.3932 57.3078L63.7073 63.5756H56.0983V59.5756ZM58.3399 58.0339L61.6348 55.7659L61.635 55.7662L58.3399 58.0339ZM44.6573 38.1557L41.3624 40.4237L41.362 40.4231L44.6573 38.1557ZM43.1104 35.9075L46.4053 33.6395L46.4056 33.6401L43.1104 35.9075ZM33.3226 21.6879L36.6174 19.4198L36.6175 19.42L33.3226 21.6879ZM32.5114 20.5095V16.5095H34.614L35.8062 18.2414L32.5114 20.5095ZM20.4844 20.5095L17.1892 22.7772L12.876 16.5095H20.4844V20.5095ZM23.4176 24.7718L20.1225 27.0396L20.1224 27.0394L23.4176 24.7718ZM36.4314 43.6806L33.1373 45.9497L33.1364 45.9484L36.4314 43.6806ZM37.9784 45.9264L41.2725 43.6572L41.2734 43.6586L37.9784 45.9264ZM48.4348 61.1191L45.1414 63.3891L45.1398 63.3869L48.4348 61.1191ZM49.2461 62.2961V66.2961H47.145L45.9526 64.5662L49.2461 62.2961ZM61.2732 62.2961L64.5683 60.0285L68.8817 66.2961H61.2732V62.2961ZM47.3808 61.8435L36.5174 46.0598L43.1073 41.5241L53.9708 57.3078L47.3808 61.8435ZM36.5178 46.0604L34.9707 43.8136L41.5598 39.2767L43.1069 41.5235L36.5178 46.0604ZM34.9703 43.813L22.3645 25.4979L28.9545 20.9622L41.5603 39.2773L34.9703 43.813ZM25.6595 19.23H31.0819V27.23H25.6595V19.23ZM34.3769 20.9622L44.5714 35.7741L37.9814 40.3097L27.7869 25.4979L34.3769 20.9622ZM44.571 35.7736L46.118 38.0204L39.5287 42.5571L37.9818 40.3103L44.571 35.7736ZM46.1183 38.0208L59.3932 57.3078L52.8033 61.8435L39.5284 42.5566L46.1183 38.0208ZM56.0983 63.5756H50.6758V55.5756H56.0983V63.5756ZM55.045 60.3018L41.3624 40.4237L47.9522 35.8877L61.6348 55.7659L55.045 60.3018ZM41.362 40.4231L39.8151 38.1749L46.4056 33.6401L47.9526 35.8883L41.362 40.4231ZM39.8155 38.1755L30.0277 23.9559L36.6175 19.42L46.4053 33.6395L39.8155 38.1755ZM30.0278 23.956L29.2166 22.7776L35.8062 18.2414L36.6174 19.4198L30.0278 23.956ZM32.5114 24.5095H20.4844V16.5095H32.5114V24.5095ZM23.7795 18.2419L26.7127 22.5042L20.1224 27.0394L17.1892 22.7772L23.7795 18.2419ZM26.7126 22.504L39.7264 41.4128L33.1364 45.9484L20.1225 27.0396L26.7126 22.504ZM39.7255 41.4115L41.2725 43.6572L34.6843 48.1955L33.1373 45.9497L39.7255 41.4115ZM41.2734 43.6586L51.7299 58.8513L45.1398 63.3869L34.6834 48.1942L41.2734 43.6586ZM51.7283 58.8491L52.5396 60.0261L45.9526 64.5662L45.1414 63.3891L51.7283 58.8491ZM49.2461 58.2961H61.2732V66.2961H49.2461V58.2961ZM57.9781 64.5638L55.0448 60.3016L61.635 55.7662L64.5683 60.0285L57.9781 64.5638Z" fill="white" mask="url(#path-2-inside-1_105_104)"/>
<mask id="path-4-inside-2_105_104" fill="white">
<path d="M38.2654 41.5451L39.8125 43.792L37.9785 45.9264L23.9074 62.2961H20.4375L36.4315 43.6806L38.2654 41.5451Z"/>
</mask>
<path d="M38.2654 41.5451L39.8125 43.792L37.9785 45.9264L23.9074 62.2961H20.4375L36.4315 43.6806L38.2654 41.5451Z" fill="white"/>
<path d="M38.2654 41.5451L35.2309 38.9391L38.6146 34.999L41.56 39.2767L38.2654 41.5451ZM39.8125 43.792L43.107 41.5235L44.8546 44.0615L42.8463 46.3988L39.8125 43.792ZM37.9785 45.9264L41.0124 48.5332L41.0119 48.5338L37.9785 45.9264ZM23.9074 62.2961L26.9407 64.9036L25.7437 66.2961H23.9074V62.2961ZM20.4375 62.2961V66.2961H11.7272L17.4035 59.6894L20.4375 62.2961ZM36.4315 43.6806L39.4661 46.2866L39.4655 46.2873L36.4315 43.6806ZM41.56 39.2767L43.107 41.5235L36.5179 46.0604L34.9709 43.8136L41.56 39.2767ZM42.8463 46.3988L41.0124 48.5332L34.9446 43.3195L36.7786 41.1851L42.8463 46.3988ZM41.0119 48.5338L26.9407 64.9036L20.874 59.6887L34.9451 43.3189L41.0119 48.5338ZM23.9074 66.2961H20.4375V58.2961H23.9074V66.2961ZM17.4035 59.6894L33.3975 41.0739L39.4655 46.2873L23.4715 64.9029L17.4035 59.6894ZM33.397 41.0745L35.2309 38.9391L41.3 44.1512L39.4661 46.2866L33.397 41.0745Z" fill="white" mask="url(#path-4-inside-2_105_104)"/>
<mask id="path-6-inside-3_105_104" fill="white">
<path d="M59.8223 20.5095L44.6543 38.1556L42.8204 40.2887L41.2734 38.0419L43.1074 35.9075L53.382 23.9484L56.3524 20.5095H59.8223Z"/>
</mask>
<path d="M59.8223 20.5095L44.6543 38.1556L42.8204 40.2887L41.2734 38.0419L43.1074 35.9075L53.382 23.9484L56.3524 20.5095H59.8223Z" fill="white"/>
<path d="M59.8223 20.5095V16.5095H68.5352L62.8557 23.1169L59.8223 20.5095ZM44.6543 38.1556L47.6877 40.763L47.6874 40.7634L44.6543 38.1556ZM42.8204 40.2887L45.8534 42.8965L42.4693 46.8324L39.5257 42.557L42.8204 40.2887ZM41.2734 38.0419L37.9788 40.3102L36.2314 37.7722L38.2396 35.435L41.2734 38.0419ZM43.1074 35.9075L46.1414 38.5141L46.1413 38.5143L43.1074 35.9075ZM53.382 23.9484L50.348 21.3418L50.3549 21.3338L53.382 23.9484ZM56.3524 20.5095L53.3253 17.8948L54.5219 16.5095H56.3524V20.5095ZM62.8557 23.1169L47.6877 40.763L41.6209 35.5482L56.7889 17.9021L62.8557 23.1169ZM47.6874 40.7634L45.8534 42.8965L39.7873 37.6809L41.6212 35.5479L47.6874 40.7634ZM39.5257 42.557L37.9788 40.3102L44.5681 35.7735L46.115 38.0203L39.5257 42.557ZM38.2396 35.435L40.0735 33.3006L46.1413 38.5143L44.3073 40.6487L38.2396 35.435ZM40.0734 33.3008L50.348 21.3418L56.416 26.5551L46.1414 38.5141L40.0734 33.3008ZM50.3549 21.3338L53.3253 17.8948L59.3795 23.1242L56.4091 26.5631L50.3549 21.3338ZM56.3524 16.5095H59.8223V24.5095H56.3524V16.5095Z" fill="white" mask="url(#path-6-inside-3_105_104)"/>
</svg>
